<?xml version="1.0" encoding="utf-8"?>
<!-- Generator: Adobe Illustrator 15.0.0, SVG Export Plug-In . SVG Version: 6.00 Build 0)  -->
<!DOCTYPE svg PUBLIC "-//W3C//DTD SVG 1.1//EN" "http://www.w3.org/Graphics/SVG/1.1/DTD/svg11.dtd">
<svg version="1.1" id="Layer_1" xmlns="http://www.w3.org/2000/svg" xmlns:xlink="http://www.w3.org/1999/xlink" x="0px" y="0px"
	 width="207px" height="98.667px" viewBox="0 0 207 98.667" enable-background="new 0 0 207 98.667" xml:space="preserve">
<path fill="#FFFFFF" d="M121.208,80.061h-9.119c-4.659,0-8.261-0.81-10.387-3.642c-2.651-3.34-2.651-6.172-2.651-9.815V8.826h8.275
	v57.778c0,4.655,0.104,5.67,4.764,5.67h9.119V80.061z"/>
<path fill="#FFFFFF" d="M158.528,80.061V19.448c0-3.944-2.542-4.653-4.345-4.653c-1.168,0-4.451,0.304-4.451,4.653V80.06h-8.168
	V19.448c0-4.653-4.029-4.653-4.451-4.653c-0.849,0-4.347,0.304-4.347,4.653V80.06h-8.164V19.448
	c0-12.442,11.022-12.442,12.192-12.442c4.236,0,6.891,1.82,8.797,3.137c2.016-1.417,4.453-3.137,8.803-3.137
	c4.242,0,12.3,1.82,12.3,12.442V80.06L158.528,80.061L158.528,80.061z"/>
<path fill="#FFFFFF" d="M189.38,80.061c-9.33-9.812-14.731-22.464-14.731-35.722c0-13.151,5.722-25.596,14.731-35.513h11.873
	c-4.873,4.048-18.445,15.381-18.445,35.513c0,20.646,12.934,31.168,18.445,35.722H189.38z"/>
<path fill="#FFFFFF" d="M102.633,90.109c-0.283-1.316-1.372-1.555-2.088-1.555c-1.35,0-2.437,1-2.437,2.977
	c0,1.764,0.621,3.127,2.467,3.127c0.652,0,1.787-0.316,2.124-2.064h0.978c-0.419,2.834-2.698,2.961-3.258,2.961
	c-1.689,0-3.347-1.105-3.347-3.995c0-2.304,1.31-3.905,3.474-3.905c1.92,0,2.91,1.201,3.062,2.456L102.633,90.109L102.633,90.109z"
	/>
<path fill="#FFFFFF" d="M110.208,95.554c-2.78,0-3.631-2.328-3.631-3.948c0-1.618,0.851-3.952,3.631-3.952s3.633,2.334,3.633,3.952
	C113.841,93.226,112.989,95.554,110.208,95.554 M110.208,88.555c-1.614,0-2.592,1.284-2.592,3.051c0,1.765,0.977,3.052,2.592,3.052
	c1.619,0,2.592-1.287,2.592-3.052C112.8,89.839,111.828,88.555,110.208,88.555"/>
<polygon fill="#FFFFFF" points="122.042,87.853 123.018,87.853 123.018,95.355 121.887,95.355 118.105,89.296 118.083,89.296 
	118.083,95.355 117.105,95.355 117.105,87.853 118.3,87.853 122.018,93.916 122.042,93.916 "/>
<path fill="#FFFFFF" d="M131.158,90.048c-0.05-1.16-1.005-1.526-1.848-1.526c-0.639,0-1.7,0.179-1.7,1.317
	c0,0.638,0.448,0.847,0.882,0.951l2.127,0.488c0.967,0.233,1.688,0.814,1.688,2.01c0,1.774-1.637,2.266-2.908,2.266
	c-1.389,0-1.925-0.42-2.253-0.723c-0.632-0.578-0.761-1.203-0.761-1.904h0.947c0,1.359,1.1,1.758,2.053,1.758
	c0.727,0,1.947-0.188,1.947-1.26c0-0.791-0.363-1.037-1.584-1.33l-1.527-0.355c-0.487-0.115-1.586-0.459-1.586-1.768
	c0-1.166,0.76-2.318,2.566-2.318c2.6,0,2.858,1.569,2.898,2.396h-0.941V90.048z"/>
<polygon fill="#FFFFFF" points="135.014,87.853 141.059,87.853 141.059,88.75 138.544,88.75 138.544,95.355 137.533,95.355 
	137.533,88.75 135.014,88.75 "/>
<path fill="#FFFFFF" d="M145.197,95.355h-1.004v-7.503h3.438c1.227,0,2.451,0.431,2.451,2.015c0,1.108-0.561,1.52-1.037,1.797
	c0.427,0.184,0.85,0.367,0.892,1.412l0.062,1.355c0.01,0.421,0.062,0.581,0.373,0.758v0.166h-1.232
	c-0.146-0.463-0.178-1.604-0.178-1.884c0-0.611-0.125-1.337-1.33-1.337h-2.435L145.197,95.355L145.197,95.355z M145.197,91.271
	h2.338c0.734,0,1.512-0.189,1.512-1.299c0-1.157-0.842-1.25-1.34-1.25h-2.51V91.271z"/>
<path fill="#FFFFFF" d="M159.104,87.853v4.87c0,1.53-0.953,2.831-2.992,2.831c-2.004,0-2.87-1.301-2.87-2.693v-5.008h1.012v4.725
	c0,1.629,0.983,2.08,1.886,2.08c0.927,0,1.96-0.432,1.96-2.062v-4.741L159.104,87.853L159.104,87.853z"/>
<path fill="#FFFFFF" d="M168.003,90.109c-0.279-1.316-1.373-1.555-2.088-1.555c-1.345,0-2.434,1-2.434,2.977
	c0,1.764,0.619,3.127,2.469,3.127c0.652,0,1.783-0.316,2.123-2.064h0.975c-0.411,2.834-2.696,2.961-3.258,2.961
	c-1.688,0-3.344-1.105-3.344-3.995c0-2.304,1.301-3.905,3.469-3.905c1.918,0,2.914,1.201,3.061,2.456L168.003,90.109L168.003,90.109
	z"/>
<polygon fill="#FFFFFF" points="171.693,87.853 177.74,87.853 177.74,88.75 175.22,88.75 175.22,95.355 174.214,95.355 
	174.214,88.75 171.693,88.75 "/>
<rect x="180.903" y="87.851" fill="#FFFFFF" width="1.007" height="7.503"/>
<path fill="#FFFFFF" d="M188.951,95.554c-2.785,0-3.634-2.328-3.634-3.948c0-1.618,0.849-3.952,3.634-3.952
	c2.778,0,3.633,2.334,3.633,3.952C192.583,93.226,191.729,95.554,188.951,95.554 M188.951,88.555c-1.617,0-2.597,1.284-2.597,3.051
	c0,1.765,0.979,3.052,2.597,3.052c1.616,0,2.592-1.287,2.592-3.052C191.542,89.839,190.566,88.555,188.951,88.555"/>
<polygon fill="#FFFFFF" points="200.783,87.853 201.757,87.853 201.757,95.355 200.628,95.355 196.843,89.296 196.821,89.296 
	196.821,95.355 195.843,95.355 195.843,87.853 197.041,87.853 200.761,93.916 200.783,93.916 "/>
<path d="M80.138,52.789C83.359,73.481,69.37,87.132,48.91,83.277C28.441,79.423,7.981,58.373,3.219,36.266
	C-1.546,14.159,12.443,0.518,34.457,5.787C56.464,11.056,76.919,32.096,80.138,52.789 M26.282,20.084
	c-0.689-0.077-1.37-0.148-2.06-0.212c-0.689,2.05-1.37,4.114-2.05,6.175c-1.137,1.964-2.17,4.926-3.657,6.63
	c-1.108,1.286-3.246,1.408-4.108,2.975c-1.616,2.966-2.256,6.858-4.504,9.15c0.359,0.938,0.723,1.877,1.086,2.817
	c0.94,0.195,1.882,0.393,2.813,0.587c3.518-1.968,2.695-6.96,5.079-10.042c3.161-3.981,7.792-3.879,8.281-11.001
	c5.617,3.124,3.303,10.336,9.19,15.287c0.607,0.128,1.208,0.257,1.809,0.388c1.521-1.195,3.037-2.387,4.571-3.573
	c0.676,0.667,0.559,0.472,1.022,1.485c2.316,1.144,4.01,6.348,9.607,7.629c1.197-0.665,2.414-1.33,3.626-1.99
	c0.195,0.131,0.379,0.252,0.568,0.377c1.656,3.603,7.153,9.069,11.524,7.712c-0.312-1.391-0.632-2.789-0.947-4.188
	c-3.484-1.249-7.641-4.819-10.006-7.414c-3.234-0.84-4.943-0.612-5.816,0.993c-4.012-3.27-6.307-8.067-9.685-11.973
	c-1.518-0.381-2.534-0.461-3.312-0.228c0.306,0.745,0.621,1.494,0.92,2.23c-1.297,1.093-1.412,2.609-3.742,2.72
	C35.055,28.268,30.247,25.801,26.282,20.084"/>
<path fill="#F1C65D" d="M79.608,50.934c3.218,20.69-10.771,34.341-31.235,30.485C27.9,77.562,7.451,56.516,2.689,34.411
	C-2.074,12.312,11.904-1.342,33.922,3.929C55.932,9.198,76.39,30.25,79.608,50.934 M25.752,18.227
	c-0.692-0.073-1.375-0.144-2.06-0.215c-0.691,2.055-1.372,4.119-2.048,6.185c-1.142,1.961-2.179,4.918-3.66,6.632
	c-1.108,1.283-3.25,1.394-4.114,2.966c-1.612,2.968-2.246,6.863-4.507,9.148c0.357,0.936,0.729,1.884,1.098,2.827
	c0.944,0.195,1.877,0.39,2.815,0.585c3.518-1.966,2.689-6.96,5.079-10.037c3.159-3.988,7.787-3.888,8.277-11.001
	c5.626,3.119,3.298,10.332,9.192,15.282c0.603,0.131,1.204,0.259,1.809,0.39c1.521-1.204,3.039-2.395,4.56-3.584
	c0.687,0.671,0.561,0.477,1.031,1.494c2.31,1.14,4.008,6.351,9.596,7.625c1.212-0.663,2.425-1.326,3.637-1.984
	c0.188,0.128,0.377,0.253,0.563,0.375c1.658,3.598,7.153,9.066,11.522,7.713c-0.312-1.394-0.627-2.789-0.942-4.187
	c-3.485-1.246-7.634-4.824-10.004-7.413c-3.239-0.849-4.954-0.618-5.821,0.984c-4.012-3.268-6.302-8.064-9.683-11.968
	c-1.523-0.379-2.529-0.463-3.307-0.233c0.308,0.745,0.612,1.492,0.917,2.234c-1.301,1.093-1.414,2.611-3.742,2.729
	C34.532,26.415,29.713,23.943,25.752,18.227"/>
</svg>
