<?xml version="1.0" encoding="utf-8"?>
<!-- Generator: Adobe Illustrator 21.1.0, SVG Export Plug-In . SVG Version: 6.00 Build 0)  -->
<svg version="1.1" id="Layer_1" xmlns="http://www.w3.org/2000/svg" xmlns:xlink="http://www.w3.org/1999/xlink" x="0px" y="0px"
	 viewBox="0 0 175 85" style="enable-background:new 0 0 175 85;" xml:space="preserve">
<style type="text/css">
	.st0{fill:#262626;}
	.st1{fill:#F1C65D;}
</style>
<path class="st0" d="M100.3,66.5h-7.5c-3.8,0-6.8-0.7-8.6-3C82,60.8,82,58.4,82,55.4V7.8h6.8v47.6c0,3.8,0.1,4.7,3.9,4.7h7.5
	L100.3,66.5L100.3,66.5z"/>
<path class="st0" d="M131,66.5v-50c0-3.3-2.1-3.8-3.6-3.8c-1,0-3.7,0.3-3.7,3.8v50h-6.7v-50c0-3.8-3.3-3.8-3.7-3.8
	c-0.7,0-3.6,0.3-3.6,3.8v50h-6.7v-50c0-10.3,9.1-10.3,10.1-10.3c3.5,0,5.7,1.5,7.3,2.6c1.7-1.2,3.7-2.6,7.3-2.6
	c3.5,0,10.1,1.5,10.1,10.3v50L131,66.5L131,66.5z"/>
<path class="st0" d="M156.5,66.5c-7.7-8.1-12.1-18.5-12.1-29.5c0-10.8,4.7-21.1,12.1-29.3h9.8c-4,3.3-15.2,12.7-15.2,29.3
	c0,17,10.7,25.7,15.2,29.5H156.5z"/>
<path class="st0" d="M84.9,74.8c-0.2-1.1-1.1-1.3-1.7-1.3c-1.1,0-2,0.8-2,2.5c0,1.5,0.5,2.6,2,2.6c0.5,0,1.5-0.3,1.8-1.7h0.8
	c-0.3,2.3-2.2,2.4-2.7,2.4c-1.4,0-2.8-0.9-2.8-3.3c0-1.9,1.1-3.2,2.9-3.2c1.6,0,2.4,1,2.5,2L84.9,74.8L84.9,74.8z"/>
<path class="st0" d="M91.2,79.3c-2.3,0-3-1.9-3-3.3c0-1.3,0.7-3.3,3-3.3c2.3,0,3,1.9,3,3.3C94.2,77.4,93.5,79.3,91.2,79.3
	 M91.2,73.5c-1.3,0-2.1,1.1-2.1,2.5c0,1.5,0.8,2.5,2.1,2.5c1.3,0,2.1-1.1,2.1-2.5C93.3,74.6,92.5,73.5,91.2,73.5"/>
<polygon class="st0" points="101,72.9 101.8,72.9 101.8,79.1 100.8,79.1 97.7,74.1 97.7,74.1 97.7,79.1 96.9,79.1 96.9,72.9 
	97.9,72.9 100.9,77.9 101,77.9 "/>
<path class="st0" d="M108.5,74.8c0-1-0.8-1.3-1.5-1.3c-0.5,0-1.4,0.1-1.4,1.1c0,0.5,0.4,0.7,0.7,0.8l1.8,0.4
	c0.8,0.2,1.4,0.7,1.4,1.7c0,1.5-1.3,1.9-2.4,1.9c-1.1,0-1.6-0.3-1.9-0.6c-0.5-0.5-0.6-1-0.6-1.6h0.8c0,1.1,0.9,1.4,1.7,1.4
	c0.6,0,1.6-0.2,1.6-1c0-0.7-0.3-0.9-1.3-1.1l-1.3-0.3c-0.4-0.1-1.3-0.4-1.3-1.5c0-1,0.6-1.9,2.1-1.9c2.1,0,2.4,1.3,2.4,2L108.5,74.8
	L108.5,74.8z"/>
<polygon class="st0" points="111.7,72.9 116.6,72.9 116.6,73.7 114.6,73.7 114.6,79.1 113.7,79.1 113.7,73.7 111.7,73.7 "/>
<path class="st0" d="M120,79.1h-0.8v-6.2h2.8c1,0,2,0.4,2,1.7c0,0.9-0.5,1.3-0.9,1.5c0.4,0.2,0.7,0.3,0.7,1.2l0.1,1.1
	c0,0.3,0.1,0.5,0.3,0.6v0.1h-1c-0.1-0.4-0.1-1.3-0.1-1.6c0-0.5-0.1-1.1-1.1-1.1h-2L120,79.1L120,79.1z M120,75.8h1.9
	c0.6,0,1.2-0.2,1.2-1.1c0-1-0.7-1-1.1-1H120V75.8z"/>
<path class="st0" d="M131.5,72.9v4c0,1.3-0.8,2.3-2.5,2.3c-1.7,0-2.4-1.1-2.4-2.2v-4.1h0.8v3.9c0,1.3,0.8,1.7,1.6,1.7
	c0.8,0,1.6-0.4,1.6-1.7v-3.9L131.5,72.9L131.5,72.9z"/>
<path class="st0" d="M138.9,74.8c-0.2-1.1-1.1-1.3-1.7-1.3c-1.1,0-2,0.8-2,2.5c0,1.5,0.5,2.6,2,2.6c0.5,0,1.5-0.3,1.8-1.7h0.8
	c-0.3,2.3-2.2,2.4-2.7,2.4c-1.4,0-2.8-0.9-2.8-3.3c0-1.9,1.1-3.2,2.9-3.2c1.6,0,2.4,1,2.5,2L138.9,74.8L138.9,74.8z"/>
<polygon class="st0" points="141.9,72.9 146.9,72.9 146.9,73.7 144.8,73.7 144.8,79.1 144,79.1 144,73.7 141.9,73.7 "/>
<rect x="149.5" y="72.9" class="st0" width="0.8" height="6.2"/>
<path class="st0" d="M156.1,79.3c-2.3,0-3-1.9-3-3.3c0-1.3,0.7-3.3,3-3.3c2.3,0,3,1.9,3,3.3C159.1,77.4,158.4,79.3,156.1,79.3
	 M156.1,73.5c-1.3,0-2.1,1.1-2.1,2.5c0,1.5,0.8,2.5,2.1,2.5c1.3,0,2.1-1.1,2.1-2.5C158.3,74.6,157.5,73.5,156.1,73.5"/>
<polygon class="st0" points="165.9,72.9 166.7,72.9 166.7,79.1 165.8,79.1 162.6,74.1 162.6,74.1 162.6,79.1 161.8,79.1 161.8,72.9 
	162.8,72.9 165.9,77.9 165.9,77.9 "/>
<path d="M66.4,44c2.7,17.1-8.9,28.3-25.8,25.1C23.8,66,6.9,48.6,3,30.4C-1,12.2,10.6,0.9,28.7,5.3C46.9,9.6,63.7,27,66.4,44
	 M22,17.1c-0.6-0.1-1.1-0.1-1.7-0.2c-0.6,1.7-1.1,3.4-1.7,5.1c-0.9,1.6-1.8,4.1-3,5.5c-0.9,1.1-2.7,1.2-3.4,2.5
	c-1.3,2.4-1.9,5.7-3.7,7.5c0.3,0.8,0.6,1.5,0.9,2.3c0.8,0.2,1.6,0.3,2.3,0.5c2.9-1.6,2.2-5.7,4.2-8.3c2.6-3.3,6.4-3.2,6.8-9.1
	c4.6,2.6,2.7,8.5,7.6,12.6c0.5,0.1,1,0.2,1.5,0.3c1.3-1,2.5-2,3.8-2.9c0.6,0.6,0.5,0.4,0.8,1.2c1.9,0.9,3.3,5.2,7.9,6.3
	c1-0.5,2-1.1,3-1.6c0.2,0.1,0.3,0.2,0.5,0.3c1.4,3,5.9,7.5,9.5,6.4c-0.3-1.1-0.5-2.3-0.8-3.5c-2.9-1-6.3-4-8.3-6.1
	c-2.7-0.7-4.1-0.5-4.8,0.8c-3.3-2.7-5.2-6.7-8-9.9c-1.3-0.3-2.1-0.4-2.7-0.2c0.3,0.6,0.5,1.2,0.8,1.8c-1.1,0.9-1.2,2.2-3.1,2.2
	C29.2,23.8,25.3,21.8,22,17.1"/>
<path class="st1" d="M66,42.5c2.7,17.1-8.9,28.3-25.8,25.1C23.3,64.5,6.5,47.1,2.5,28.9C-1.4,10.6,10.1-0.6,28.3,3.7
	C46.4,8.1,63.3,25.4,66,42.5 M21.5,15.5c-0.6-0.1-1.1-0.1-1.7-0.2c-0.6,1.7-1.1,3.4-1.7,5.1c-0.9,1.6-1.8,4.1-3,5.5
	c-0.9,1.1-2.7,1.1-3.4,2.4C10.4,30.8,9.9,34,8,35.9c0.3,0.8,0.6,1.6,0.9,2.3c0.8,0.2,1.5,0.3,2.3,0.5c2.9-1.6,2.2-5.7,4.2-8.3
	c2.6-3.3,6.4-3.2,6.8-9.1c4.6,2.6,2.7,8.5,7.6,12.6c0.5,0.1,1,0.2,1.5,0.3c1.3-1,2.5-2,3.8-3c0.6,0.6,0.5,0.4,0.9,1.2
	c1.9,0.9,3.3,5.2,7.9,6.3c1-0.5,2-1.1,3-1.6c0.2,0.1,0.3,0.2,0.5,0.3c1.4,3,5.9,7.5,9.5,6.4c-0.3-1.1-0.5-2.3-0.8-3.5
	c-2.9-1-6.3-4-8.3-6.1c-2.7-0.7-4.1-0.5-4.8,0.8c-3.3-2.7-5.2-6.7-8-9.9c-1.3-0.3-2.1-0.4-2.7-0.2c0.3,0.6,0.5,1.2,0.8,1.8
	c-1.1,0.9-1.2,2.2-3.1,2.3C28.8,22.3,24.8,20.2,21.5,15.5"/>
</svg>
