<?xml version="1.0" encoding="utf-8"?>
<!-- Generator: Adobe Illustrator 15.0.0, SVG Export Plug-In . SVG Version: 6.00 Build 0)  -->
<!DOCTYPE svg PUBLIC "-//W3C//DTD SVG 1.1//EN" "http://www.w3.org/Graphics/SVG/1.1/DTD/svg11.dtd">
<svg version="1.1" id="Layer_1" xmlns="http://www.w3.org/2000/svg" xmlns:xlink="http://www.w3.org/1999/xlink" x="0px" y="0px"
	 width="80.759px" height="82.033px" viewBox="0.873 3.456 80.759 82.033" enable-background="new 0.873 3.456 80.759 82.033"
	 xml:space="preserve">
<path fill="#FFFFFF" d="M80.138,52.789C83.359,73.481,69.37,87.132,48.91,83.277C28.441,79.423,7.981,58.373,3.219,36.266
	C-1.546,14.159,12.443,0.518,34.457,5.787C56.464,11.056,76.919,32.096,80.138,52.789 M26.282,20.084
	c-0.689-0.077-1.37-0.148-2.06-0.212c-0.689,2.05-1.37,4.114-2.05,6.175c-1.137,1.964-2.17,4.926-3.657,6.63
	c-1.108,1.286-3.246,1.408-4.108,2.975c-1.616,2.966-2.256,6.858-4.504,9.15c0.359,0.938,0.723,1.877,1.086,2.817
	c0.94,0.195,1.882,0.393,2.813,0.587c3.518-1.968,2.695-6.96,5.079-10.042c3.161-3.981,7.792-3.879,8.281-11.001
	c5.617,3.124,3.303,10.336,9.19,15.287c0.607,0.128,1.208,0.257,1.809,0.388c1.521-1.195,3.037-2.387,4.571-3.573
	c0.676,0.667,0.559,0.472,1.022,1.485c2.316,1.144,4.01,6.348,9.607,7.629c1.197-0.665,2.414-1.33,3.626-1.99
	c0.195,0.131,0.379,0.252,0.568,0.377c1.656,3.603,7.153,9.069,11.524,7.712c-0.312-1.391-0.632-2.789-0.947-4.188
	c-3.484-1.25-7.641-4.819-10.006-7.415c-3.234-0.84-4.943-0.612-5.816,0.993c-4.012-3.27-6.307-8.067-9.685-11.973
	c-1.518-0.381-2.534-0.461-3.312-0.228c0.306,0.745,0.621,1.494,0.92,2.23c-1.297,1.093-1.412,2.609-3.742,2.72
	C35.055,28.268,30.247,25.801,26.282,20.084"/>
</svg>
